<svg xmlns="http://www.w3.org/2000/svg" xmlns:xlink="http://www.w3.org/1999/xlink" viewBox="0 0 273 74" preserveAspectRatio="xMidYMid" style="display: block; shape-rendering: auto; background: transparent;" width="273" height="74"><style type="text/css">
  .ld-text text {
    text-anchor: middle;
    dominant-baseline: middle;
    font-size: 53px;
    opacity: 0;
    user-select: none;
    pointer-events: none;
  }
</style>
<g style="transform-origin:136.5px 37px;transform:scale(1)" class="ld-text">
<g transform="translate(136.5,37)">
  <g transform="scale(0.6625) translate(0,0)"><g class="path" style="opacity: 1; transform-origin: -155.48px 22.46px 0px; transform: matrix3d(1, 0, 0, 0, 0, 1, 0, 0, 0, 0, 1, 0, 0, 0, 0, 1); animation: 9.09091s linear -5.25s infinite forwards animate-nq4q5u6dq7r; transform-box: view-box;"><path d="M23.36 44.28L23.36 44.28Q18.48 44.28 14.12 44.04Q9.76 43.80 7.20 43.48L7.20 43.48L7.20-12.20Q10-12.52 14.16-12.76Q18.32-13 23.68-13L23.68-13Q33.92-13 39.44-9.12Q44.96-5.24 44.96 1.40L44.96 1.40Q44.96 5.80 42.60 8.88Q40.24 11.96 35.76 13.96L35.76 13.96Q41.20 15.88 44 19.28Q46.80 22.68 46.80 27.64L46.80 27.64Q46.80 35.24 40.80 39.76Q34.80 44.28 23.36 44.28 zM14.80-6.44L14.80 11.80L23.60 11.80Q29.92 11.80 33.64 9.16Q37.36 6.52 37.36 2.36L37.36 2.36Q37.36-2.12 33.68-4.48Q30-6.84 23.60-6.84L23.60-6.84Q20.96-6.84 18.80-6.72Q16.64-6.60 14.80-6.44L14.80-6.44 zM23.92 37.96L23.92 37.96Q31.04 37.96 35.04 35.40Q39.04 32.84 39.04 27.96L39.04 27.96Q39.04 23.16 35.12 20.44Q31.20 17.72 23.92 17.72L23.92 17.72L14.80 17.72L14.80 37.48Q19.04 37.96 23.92 37.96" style="fill: rgb(147, 219, 113);" transform="translate(-182.480,-21.820)"></path></g><g class="path" style="opacity: 1; transform-origin: -107.2px 22.78px 0px; transform: matrix3d(1, 0, 0, 0, 0, 1, 0, 0, 0, 0, 1, 0, 0, 0, 0, 1); animation: 9.09091s linear -4.5s infinite forwards animate-nq4q5u6dq7r; transform-box: view-box;"><path d="M72.72 44.60L72.72 44.60Q67.52 44.60 63.28 41.96Q59.04 39.32 56.52 34.48Q54 29.64 54 23.08L54 23.08Q54 16.84 56.52 11.88Q59.04 6.92 63.48 4Q67.92 1.08 73.68 1.08L73.68 1.08Q77.28 1.08 80.20 2.32Q83.12 3.56 85.28 5.40L85.28 5.40L85.28 2.04L91.84 2.04L91.84 33.56Q91.84 36.60 93.32 37.52Q94.80 38.44 96.56 38.44L96.56 38.44L95.04 44.04Q87.36 44.04 85.76 37.80L85.76 37.80Q83.92 40.36 80.76 42.48Q77.60 44.60 72.72 44.60 zM74.32 38.20L74.32 38.20Q77.36 38.20 80.08 36.72Q82.80 35.24 84.64 33L84.64 33L84.64 10.68Q82.48 9.16 79.88 8.24Q77.28 7.32 74.40 7.32L74.40 7.32Q70.56 7.32 67.64 9.28Q64.72 11.24 63.04 14.72Q61.36 18.20 61.36 22.84L61.36 22.84Q61.36 27.32 63.04 30.80Q64.72 34.28 67.68 36.24Q70.64 38.20 74.32 38.20" style="fill: rgb(147, 219, 113);" transform="translate(-182.480,-21.820)"></path></g><g class="path" style="opacity: 1; transform-origin: -63.96px 21.82px 0px; transform: matrix3d(1, 0, 0, 0, 0, 1, 0, 0, 0, 0, 1, 0, 0, 0, 0, 1); animation: 9.09091s linear -3.75s infinite forwards animate-nq4q5u6dq7r; transform-box: view-box;"><path d="M113.36 43.64L106.16 43.64L106.16 2.04L113.12 2.04L113.12 11.08Q114.16 8.44 115.92 6.16Q117.68 3.88 120.32 2.48Q122.96 1.08 126.48 1.08L126.48 1.08Q127.68 1.08 128.88 1.20Q130.08 1.32 130.88 1.56L130.88 1.56L128.72 9Q127.20 8.36 125.12 8.36L125.12 8.36Q122.16 8.36 119.48 10.04Q116.80 11.72 115.08 15.24Q113.36 18.76 113.36 24.20L113.36 24.20L113.36 43.64" style="fill: rgb(147, 219, 113);" transform="translate(-182.480,-21.820)"></path></g><g class="path" style="opacity: 1; transform-origin: -33.52px 22.78px 0px; transform: matrix3d(1, 0, 0, 0, 0, 1, 0, 0, 0, 0, 1, 0, 0, 0, 0, 1); animation: 9.09091s linear -3s infinite forwards animate-nq4q5u6dq7r; transform-box: view-box;"><path d="M152.48 44.60L152.48 44.60Q146.56 44.60 142.12 41.84Q137.68 39.08 135.28 34.16Q132.88 29.24 132.88 22.84L132.88 22.84Q132.88 16.84 135.32 11.88Q137.76 6.92 142.32 4Q146.88 1.08 153.04 1.08L153.04 1.08Q156.56 1.08 159.24 1.72Q161.92 2.36 164.40 3.56L164.40 3.56L162.24 9.64Q160 8.52 157.96 8Q155.92 7.48 153.44 7.48L153.44 7.48Q147.84 7.48 144.04 11.52Q140.24 15.56 140.24 22.68L140.24 22.68Q140.24 27 141.84 30.52Q143.44 34.04 146.28 36.12Q149.12 38.20 152.96 38.20L152.96 38.20Q156 38.20 158.16 37.52Q160.32 36.84 162.80 35.56L162.80 35.56L165.04 41.64Q162.56 43 159.48 43.80Q156.40 44.60 152.48 44.60" style="fill: rgb(102, 214, 215);" transform="translate(-182.480,-21.820)"></path></g><g class="path" style="opacity: 1; transform-origin: 8.44px 21.82px 0px; transform: matrix3d(1, 0, 0, 0, 0, 1, 0, 0, 0, 0, 1, 0, 0, 0, 0, 1); animation: 9.09091s linear -2.25s infinite forwards animate-nq4q5u6dq7r; transform-box: view-box;"><path d="M180.64 43.64L173.44 43.64L173.44-15.56L180.64-15.56L180.64 8.68Q182.88 5.40 186.32 3.24Q189.76 1.08 194.40 1.08L194.40 1.08Q201.44 1.08 204.92 5.32Q208.40 9.56 208.40 16.52L208.40 16.52L208.40 43.64L201.20 43.64L201.20 17.32Q201.20 12.84 199.12 10.12Q197.04 7.40 193.28 7.40L193.28 7.40Q189.60 7.40 186.28 10Q182.96 12.60 180.64 16.12L180.64 16.12L180.64 43.64" style="fill: rgb(102, 214, 215);" transform="translate(-182.480,-21.820)"></path></g><g class="path" style="opacity: 1; transform-origin: 53.88px 22.78px 0px; transform: matrix3d(1, 0, 0, 0, 0, 1, 0, 0, 0, 0, 1, 0, 0, 0, 0, 1); animation: 9.09091s linear -1.5s infinite forwards animate-nq4q5u6dq7r; transform-box: view-box;"><path d="M237.44 44.60L237.44 44.60Q228.48 44.60 223.24 38.88Q218 33.16 218 22.84L218 22.84Q218 16.60 220.36 11.68Q222.72 6.76 226.96 3.92Q231.20 1.08 236.80 1.08L236.80 1.08Q242.80 1.08 246.76 3.68Q250.72 6.28 252.72 10.68Q254.72 15.08 254.72 20.36L254.72 20.36Q254.72 23.16 254.48 25.80L254.48 25.80L225.36 25.80Q226.08 31.64 229.44 34.92Q232.80 38.20 238.32 38.20L238.32 38.20Q241.92 38.20 244.80 37.44Q247.68 36.68 250.32 35.48L250.32 35.48L252 41.64Q249.12 42.92 245.52 43.76Q241.92 44.60 237.44 44.60 zM225.28 19.96L225.28 19.96L248.08 19.96Q248.08 13.88 245.04 10.60Q242 7.32 236.64 7.32L236.64 7.32Q232 7.32 228.96 10.56Q225.92 13.80 225.28 19.96" style="fill: rgb(102, 214, 215);" transform="translate(-182.480,-21.820)"></path></g><g class="path" style="opacity: 1; transform-origin: 112.24px 21.82px 0px; transform: matrix3d(1, 0, 0, 0, 0, 1, 0, 0, 0, 0, 1, 0, 0, 0, 0, 1); animation: 9.09091s linear -0.75s infinite forwards animate-nq4q5u6dq7r; transform-box: view-box;"><path d="M271.52 43.64L264.32 43.64L264.32 2.04L271.28 2.04L271.28 9Q273.52 5.64 276.96 3.36Q280.40 1.08 284.80 1.08L284.80 1.08Q289.76 1.08 292.92 3.48Q296.08 5.88 297.36 9.88L297.36 9.88Q299.84 6.20 303.24 3.64Q306.64 1.08 311.68 1.08L311.68 1.08Q318.48 1.08 321.80 5.36Q325.12 9.64 325.12 16.52L325.12 16.52L325.12 43.64L317.92 43.64L317.92 17.08Q317.92 12.76 315.92 10.08Q313.92 7.40 310.40 7.40L310.40 7.40Q306.80 7.40 303.72 10.08Q300.64 12.76 298.32 16.36L298.32 16.36L298.32 43.64L291.12 43.64L291.12 17.08Q291.12 12.76 289.12 10.08Q287.12 7.40 283.60 7.40L283.60 7.40Q280.08 7.40 276.96 10Q273.84 12.60 271.52 16.12L271.52 16.12L271.52 43.64" style="fill: rgb(102, 214, 215);" transform="translate(-182.480,-21.820)"></path></g><g class="path" style="opacity: 1; transform-origin: 169.36px 40.38px 0px; transform: matrix3d(1, 0, 0, 0, 0, 1, 0, 0, 0, 0, 1, 0, 0, 0, 0, 1); animation: 9.09091s linear infinite forwards animate-nq4q5u6dq7r; transform-box: view-box;"><path d="M338.56 62.20L338.56 62.20Q336.16 62.20 334.36 61.72Q332.56 61.24 331.52 60.60L331.52 60.60L333.12 54.60Q334.08 55.16 335.52 55.56Q336.96 55.96 338.72 55.96L338.72 55.96Q342.08 55.96 344.72 53.80Q347.36 51.64 349.76 45.32L349.76 45.32L351.60 40.52L347.76 40.52L331.52 3.96L337.92 1.08L353.44 35.72L365.52 1.40L372.16 3.96L356.88 45.72Q354.56 52.12 351.84 55.72Q349.12 59.32 345.84 60.76Q342.56 62.20 338.56 62.20" style="fill: rgb(102, 214, 215);" transform="translate(-182.480,-21.820)"></path></g></g><text dy="0.35em" fill="#93db71" font-family="ABeeZee" font-size="53">Barchemy</text>
</g>
</g><style type="text/css">@keyframes animate-nq4q5u6dq7r { 0.00% {transform: translate(0.00px,0.00px) rotate(0.00deg) scale(1.00, 1.00) skew(0deg, 0.00deg) ;opacity: 1.00;}2.00% {animation-timing-function: cubic-bezier(0.20,0.39,0.50,0.97);transform: translate(0.00px,-1.08px) rotate(0.00deg) ;}36.00% {animation-timing-function: cubic-bezier(0.50,0.03,0.80,0.61);transform: translate(0.00px,-10.00px) rotate(0.00deg) ;}72.00% {transform: translate(0.00px,0.00px) rotate(0.00deg) ;}74.00% {animation-timing-function: cubic-bezier(0.23,0.43,0.48,0.91);transform: translate(0.00px,0.00px) rotate(0.00deg) scale(1.00, 1.00) ;}86.00% {animation-timing-function: cubic-bezier(0.52,0.09,0.77,0.57);transform: translate(0.00px,0.00px) rotate(0.00deg) scale(1.00, 0.99) ;}100.00% {animation-timing-function: cubic-bezier(0.52,0.09,0.77,0.57);transform: translate(0.00px,0.00px) rotate(0.00deg) scale(1.00, 1.00) ;} }</style><!-- [ldio] generated by https://loading.io --></svg>